#!OML:ASF F:\VICON\USERDATA\INSTALL\rory3\rory3.ASF
:FULLY-SPECIFIED
:DEGREES
1626
root 1.63665 15.7733 -7.91303 -208.6 219.912 -177.552
lowerback 34.6013 2.48438 -3.12893
upperback 13.116 1.53711 1.56286
thorax -3.23426 0.293294 2.79347
lowerneck -8.191 -0.136328 -3.86844
upperneck -4.0469 0.116218 2.57465
head 0.111009 0.106084 1.45442
rclavicle 1.13904e-013 -2.66371e-014
rhumerus -47.7102 19.3341 -99.709
rradius 60.6886
rwrist -81.4728
rhand -27.5164 -4.26781
rfingers 7.12502
rthumb -0.918824 -34.2456
lclavicle 1.13904e-013 -2.66371e-014
lhumerus -60.071 -33.7449 113.102
lradius 63.4963
lwrist 65.3083
lhand -16.6678 26.3786
lfingers 7.12502
lthumb 9.55584 56.1419
rfemur -77.3481 -52.6536 15.088
rtibia 145.267
rfoot -18.5051 3.31082
rtoes -8.47465
lfemur -70.3525 38.2879 -20.9487
ltibia 139.335
lfoot -21.3061 -0.330874
ltoes 5.2942
1627
root 1.64496 15.775 -7.9303 -208.226 220.191 -177.985
lowerback 34.886 2.49731 -2.82517
upperback 13.1171 1.6424 1.70439
thorax -3.33917 0.347598 2.74242
lowerneck -8.23627 -0.0431267 -3.48228
upperneck -4.43167 0.205939 2.25019
head -0.0063952 0.143702 1.28425
rclavicle -3.97569e-014 2.26615e-014
rhumerus -47.1708 18.8068 -99.166
rradius 59.8598
rwrist -80.5246
rhand -25.8515 -3.92102
rfingers 7.12502
rthumb 0.689217 -33.8997
lclavicle -3.97569e-014 2.26615e-014
lhumerus -59.4631 -33.8976 112.726
lradius 62.8926
lwrist 66.483
lhand -15.5263 27.0075
lfingers 7.12502
lthumb 10.6571 56.7173
rfemur -77.7266 -51.9074 16.1162
rtibia 145.163
rfoot -18.9233 3.07443
rtoes -9.49389
lfemur -70.3363 38.9961 -20.5138
ltibia 139.362
lfoot -21.598 -0.505595
ltoes 4.57318
1628
root 1.66068 15.7779 -7.94444 -208.439 219.859 -177.335
lowerback 35.1358 2.57818 -3.30421
upperback 13.0376 1.57769 1.63674
thorax -3.51294 0.306579 2.94098
lowerneck -8.17205 0.0387981 -3.28289
upperneck -4.79911 0.292768 2.0048
head -0.134663 0.182672 1.17245
rclavicle 4.99943e-014 -1.59028e-015
rhumerus -46.6911 18.3415 -98.5784
rradius 58.9623
rwrist -79.589
rhand -24.0677 -3.48016
rfingers 7.12502
rthumb 2.41202 -33.4463
lclavicle 4.99943e-014 -1.59028e-015
lhumerus -59.0054 -34.0004 112.704
lradius 61.8391
lwrist 67.1762
lhand -14.9682 26.0719
lfingers 7.12502
lthumb 11.1954 55.7532
rfemur -78.1486 -52.5214 15.4509
rtibia 145.223
rfoot -19.2455 3.63707
rtoes -10.3533
lfemur -70.3334 38.1208 -21.8019
ltibia 139.124
lfoot -21.9573 0.396408
ltoes 3.80697
1629
root 1.67556 15.7788 -7.95868 -208.524 219.584 -176.85
lowerback 35.3886 2.62671 -3.66464
upperback 12.9053 1.51158 1.58379
thorax -3.7417 0.272108 3.09271
lowerneck -8.08145 0.154899 -3.19884
upperneck -5.03286 0.437155 1.95323
head -0.226085 0.253325 1.14392
rclavicle 8.84592e-014 -5.96354e-015
rhumerus -46.3652 17.8841 -98.0454
rradius 58.1885
rwrist -78.7528
rhand -22.8119 -3.36008
rfingers 7.12502
rthumb 3.62479 -33.309
lclavicle 8.84592e-014 -5.96354e-015
lhumerus -58.4378 -33.6889 112.514
lradius 60.9427
lwrist 67.174
lhand -14.3943 25.5342
lfingers 7.12502
lthumb 11.7488 55.1847
rfemur -78.7004 -52.8847 15.1611
rtibia 145.258
rfoot -19.3406 3.80938
rtoes -11.1124
lfemur -70.4089 37.3801 -22.9238
ltibia 138.932
lfoot -22.2758 1.30054
ltoes 2.56468
1630
root 1.67829 15.7845 -7.96376 -208.812 219.633 -176.64
lowerback 35.7115 2.70775 -3.80128
upperback 12.9529 1.54036 1.54773
thorax -3.80226 0.277944 3.11216
lowerneck -8.02638 0.263487 -3.07515
upperneck -5.29301 0.572545 2.06007
head -0.31932 0.319188 1.15857
rclavicle 5.06901e-014 -1.82882e-014
rhumerus -46.0863 17.4581 -97.5862
rradius 57.5541
rwrist -78.0481
rhand -21.6672 -3.32382
rfingers 7.12502
rthumb 4.73012 -33.251
lclavicle 5.06901e-014 -1.82882e-014
lhumerus -57.7069 -33.2272 111.963
lradius 60.5354
lwrist 67.0516
lhand -13.6532 26.0533
lfingers 7.12502
lthumb 12.4635 55.6616
rfemur -78.1699 -53.3389 14.5581
rtibia 145.253
rfoot -19.7408 4.17922
rtoes -11.9844
lfemur -69.6434 37.9024 -22.9362
ltibia 138.8
lfoot -22.8618 1.57272
ltoes 0.931077
1631
root 1.68097 15.7762 -7.98223 -207.883 220.211 -177.771
lowerback 35.8832 2.57244 -3.01799
upperback 12.8998 1.63704 1.77992
thorax -3.92241 0.341001 2.9086
lowerneck -8.07648 0.383787 -2.86912
upperneck -5.47811 0.718366 2.09262
head -0.372002 0.3884 1.13623
rclavicle 2.33572e-014 1.86858e-014
rhumerus -45.8061 17.1297 -97.0935
rradius 56.8509
rwrist -77.4979
rhand -20.2223 -2.97992
rfingers 7.12502
rthumb 6.12524 -32.8714
lclavicle 2.33572e-014 1.86858e-014
lhumerus -57.0118 -32.8552 111.37
lradius 60.096
lwrist 67.1669
lhand -12.7385 26.4698
lfingers 7.12502
lthumb 13.3453 56.0224
rfemur -78.9258 -51.5963 16.8647
rtibia 145.141
rfoot -19.8075 3.08595
rtoes -12.4679
lfemur -70.1069 39.3891 -21.7743
ltibia 139.039
lfoot -22.9415 1.21059
ltoes -0.379371
1632
root 1.68117 15.7752 -7.98931 -208.32 220.11 -177.212
lowerback 36.2515 2.72574 -3.56082
upperback 12.8269 1.61684 1.71235
thorax -3.99299 0.313348 3.1237
lowerneck -8.1445 0.528656 -2.69581
upperneck -5.57007 0.900083 2.12903
head -0.393626 0.476209 1.12175
rclavicle 3.15074e-014 -3.10104e-014
rhumerus -45.5431 16.7814 -96.5101
rradius 56.0941
rwrist -77.0765
rhand -18.8786 -2.47535
rfingers 7.12502
rthumb 7.42229 -32.3251
lclavicle 3.15074e-014 -3.10104e-014
lhumerus -56.2284 -32.4546 110.611
lradius 59.6107
lwrist 67.8281
lhand -11.3002 27.9077
lfingers 7.12502
lthumb 14.7312 57.3642
rfemur -78.7268 -52.4179 15.9403
rtibia 145.278
rfoot -20.0983 3.94541
rtoes -12.0944
lfemur -69.4991 39.6192 -22.3001
ltibia 138.886
lfoot -23.3489 1.86093
ltoes -1.73184
1633
root 1.67777 15.7737 -8.00684 -207.712 220.549 -177.816
lowerback 36.2906 2.80062 -3.2925
upperback 12.7953 1.80989 1.8851
thorax -4.05737 0.409455 3.098
lowerneck -8.23054 0.597583 -2.58948
upperneck -5.62491 0.990878 2.37678
head -0.399341 0.520225 1.1841
rclavicle 2.50469e-014 -4.96962e-014
rhumerus -45.2871 16.2615 -95.9059
rradius 55.4915
rwrist -76.5654
rhand -18.0543 -2.11979
rfingers 7.12502
rthumb 8.21789 -31.94
lclavicle 2.50469e-014 -4.96962e-014
lhumerus -55.087 -32.0733 109.398
lradius 59.2073
lwrist 69.0337
lhand -9.36091 31.351
lfingers 7.12502
lthumb 16.599 60.6611
rfemur -79.5974 -51.1147 17.7256
rtibia 145.215
rfoot -20.0423 3.19153
rtoes -11.8585
lfemur -70.2957 40.5284 -21.6131
ltibia 139.048
lfoot -23.0491 0.962134
ltoes -0.288632
1634
root 1.69821 15.7842 -8.01739 -207.236 220.382 -178.234
lowerback 36.4342 2.57451 -2.80787
upperback 12.7346 1.68896 1.83954
thorax -4.1527 0.370268 2.83669
lowerneck -8.22998 0.599428 -2.49399
upperneck -5.77172 0.994849 2.73924
head -0.446075 0.520221 1.28256
rclavicle -2.34566e-014 1.63003e-014
rhumerus -45.1357 15.6855 -95.3423
rradius 55.1137
rwrist -76.1102
rhand -17.3183 -1.84241
rfingers 7.12502
rthumb 8.92823 -31.6335
lclavicle -2.34566e-014 1.63003e-014
lhumerus -55.0895 -32.8794 109.865
lradius 58.2314
lwrist 68.945
lhand -10.5702 28.0417
lfingers 7.12502
lthumb 15.4345 57.4454
rfemur -79.7521 -51.0605 18.1471
rtibia 145.016
rfoot -20.0778 3.08497
rtoes -12.3543
lfemur -71.5055 39.1377 -21.7486
ltibia 139.042
lfoot -22.227 0.106529
ltoes 4.01569
1635
root 1.70949 15.7883 -8.02716 -206.825 220.464 -178.758
lowerback 36.6223 2.41955 -2.34845
upperback 12.7147 1.64657 1.86371
thorax -4.22709 0.36134 2.63467
lowerneck -8.25735 0.626169 -2.46254
upperneck -5.89572 1.03792 3.10508
head -0.482803 0.540742 1.39466
rclavicle -6.24184e-014 2.38542e-015
rhumerus -45.0197 15.3263 -94.8257
rradius 54.7716
rwrist -76.0218
rhand -16.7848 -3.82878
rfingers 7.12502
rthumb 9.44295 -33.5972
lclavicle -6.24184e-014 2.38542e-015
lhumerus -54.63 -32.9953 109.699
lradius 57.4554
lwrist 68.9149
lhand -11.0846 26.9468
lfingers 7.12502
lthumb 14.939 56.388
rfemur -79.804 -50.513 18.8027
rtibia 144.855
rfoot -20.1014 2.82373
rtoes -12.3982
lfemur -72.1866 38.8287 -21.3319
ltibia 139.095
lfoot -21.7282 -0.810883
ltoes 6.58489
